<svg xmlns="http://www.w3.org/2000/svg" xmlns:xlink="http://www.w3.org/1999/xlink" viewBox="0 0 821.77 611.99"><defs><style>.a{fill:#fff;}.b{fill:#e6e6e6;}.c{mask:url(#a);}.d{fill:#ff8900;}.e{mask:url(#b);}.f{fill:#d0c6ac;}.g{mask:url(#c);}.h{fill:#ffdbb4;}.i{mask:url(#d);}.j{fill-opacity:0.1;}.k{fill:#b7c1db;}.l{mask:url(#e);}.m{fill:#293347;}.n{mask:url(#f);}.o{fill:#f4f4f4;}.p{mask:url(#g);}.q{fill-opacity:0.16;}.r{fill-opacity:0.7;}.s{mask:url(#h);}.t{mask:url(#i);}.u{fill:#ff4f6d;}.v{mask:url(#j);}.w{fill:#2b5c52;}.x{mask:url(#k);}.y{fill:#212121;}.z{mask:url(#l);}.aa{mask:url(#m);}.ab{fill-opacity:0.6;}.ac{mask:url(#n);}.ad{fill:#1f3140;}.ae{mask:url(#o);}.af{fill:#4a312c;}</style><mask id="a" x="23" y="79.86" width="483" height="485.13" maskUnits="userSpaceOnUse"><g transform="translate(-299 -206.01)"><circle class="a" cx="563.39" cy="526.72" r="240.85"/></g></mask><mask id="b" x="-0.55" y="-0.43" width="529.88" height="562.42" maskUnits="userSpaceOnUse"><g transform="translate(-299 -206.01)"><path class="a" d="M322.53,526.72H298.45V205.58H828.33V526.72H804.24c0,133-107.83,240.85-240.85,240.85S322.53,659.74,322.53,526.72Z"/></g></mask><mask id="c" x="0" y="71.36" width="530.77" height="490.63" maskUnits="userSpaceOnUse"><g transform="translate(-299 -206.01)"><path class="a" d="M611.56,568.09V605h8A144.51,144.51,0,0,1,764.1,749.51v18.06H362.68V749.51A144.51,144.51,0,0,1,507.19,605h8V568.09a112.5,112.5,0,0,1-63.62-89.78,24.09,24.09,0,0,1-20.68-23.85v-28.1A24.09,24.09,0,0,1,451,402.61V390.24a112.4,112.4,0,1,1,224.8,0v12.37a24.09,24.09,0,0,1,20.07,23.75v28.1a24.1,24.1,0,0,1-20.69,23.85A112.48,112.48,0,0,1,611.56,568.09Z"/></g></mask><mask id="d" x="63.68" y="71.83" width="401.42" height="489.74" maskUnits="userSpaceOnUse"><g transform="translate(-299 -206.01)"><path class="a" d="M611.56,568.09V605h8A144.51,144.51,0,0,1,764.1,749.51v18.06H362.68V749.51A144.51,144.51,0,0,1,507.19,605h8V568.09a112.5,112.5,0,0,1-63.62-89.78,24.09,24.09,0,0,1-20.68-23.85v-28.1A24.09,24.09,0,0,1,451,402.61V390.24a112.4,112.4,0,1,1,224.8,0v12.37a24.09,24.09,0,0,1,20.07,23.75v28.1a24.1,24.1,0,0,1-20.69,23.85A112.48,112.48,0,0,1,611.56,568.09Z"/></g></mask><mask id="e" x="0" y="341.21" width="530.77" height="220.78" maskUnits="userSpaceOnUse"><g transform="translate(-299 -206.01)"><path class="a" d="M515.22,573v38a48.17,48.17,0,1,0,96.34,0V573c36,4,63.66,15,64.22,43.3A144.55,144.55,0,0,1,764.1,749.51v18.06H362.68V749.51A144.55,144.55,0,0,1,451,616.33C451.55,588,479.25,577.05,515.22,573Z"/></g></mask><mask id="f" x="63.68" y="367.02" width="401.42" height="194.97" maskUnits="userSpaceOnUse"><g transform="translate(-299 -206.01)"><path class="a" d="M515.22,573v38a48.17,48.17,0,1,0,96.34,0V573c36,4,63.66,15,64.22,43.3A144.55,144.55,0,0,1,764.1,749.51v18.06H362.68V749.51A144.55,144.55,0,0,1,451,616.33C451.55,588,479.25,577.05,515.22,573Z"/></g></mask><mask id="g" x="63.68" y="366.32" width="401.42" height="195.24" maskUnits="userSpaceOnUse"><g transform="translate(-299 -206.01)"><path class="a" d="M515.22,573v38a48.17,48.17,0,1,0,96.34,0V573c36,4,63.66,15,64.22,43.3A144.55,144.55,0,0,1,764.1,749.51v18.06H362.68V749.51A144.55,144.55,0,0,1,451,616.33C451.55,588,479.25,577.05,515.22,573Z"/></g></mask><mask id="h" x="226.47" y="272.08" width="75.84" height="60.68" maskUnits="userSpaceOnUse"><g transform="translate(-299 -206.01)"><path class="a" d="M525.49,504.9a38.14,38.14,0,0,0,75.82-.18c.16-1.54-1.56-4.09-3.72-4.09H529.44A4.27,4.27,0,0,0,525.49,504.9Z"/></g></mask><mask id="i" x="226.47" y="294.62" width="75.84" height="66.23" maskUnits="userSpaceOnUse"><g transform="translate(-299 -206.01)"><path class="a" d="M525.49,504.9a38.14,38.14,0,0,0,75.82-.18c.16-1.54-1.56-4.09-3.72-4.09H529.44A4.27,4.27,0,0,0,525.49,504.9Z"/></g></mask><mask id="j" x="184.1" y="206.31" width="56.2" height="32.11" maskUnits="userSpaceOnUse"><g transform="translate(-299 -206.01)"><path class="a" d="M511.2,440.51c19.29,0,28.1,8.94,28.1-5s-12.58-23.2-28.1-23.2-28.1,9.28-28.1,23.2S491.91,440.51,511.2,440.51Z"/></g></mask><mask id="k" x="184.1" y="206.31" width="56.2" height="31.02" maskUnits="userSpaceOnUse"><g transform="translate(-299 -206.01)"><path class="a" d="M511.2,440.51c19.29,0,28.1,8.94,28.1-5s-12.58-23.2-28.1-23.2-28.1,9.28-28.1,23.2S491.91,440.51,511.2,440.51Z"/></g></mask><mask id="l" x="288.47" y="206.31" width="56.2" height="32.11" maskUnits="userSpaceOnUse"><g transform="translate(-299 -206.01)"><path class="a" d="M615.57,440.51c19.29,0,28.1,8.94,28.1-5s-12.58-23.2-28.1-23.2-28.1,9.28-28.1,23.2S596.28,440.51,615.57,440.51Z"/></g></mask><mask id="m" x="288.47" y="206.31" width="56.2" height="31.02" maskUnits="userSpaceOnUse"><g transform="translate(-299 -206.01)"><path class="a" d="M615.57,440.51c19.29,0,28.1,8.94,28.1-5s-12.58-23.2-28.1-23.2-28.1,9.28-28.1,23.2S596.28,440.51,615.57,440.51Z"/></g></mask><mask id="n" x="-0.55" y="-0.43" width="529.88" height="561.99" maskUnits="userSpaceOnUse"><g transform="translate(-299 -206.01)"><rect class="a" x="298.45" y="205.58" width="529.88" height="561.99"/></g></mask><mask id="o" x="0" y="0" width="533" height="561.99" maskUnits="userSpaceOnUse"><g transform="translate(-299 -206.01)"><path class="a" d="M658,285.71c-5.54-5.66-12-10.47-18.22-15.28-1.38-1.07-2.79-2.1-4.14-3.21-.3-.25-3.44-2.5-3.82-3.32-.91-2-.38-.45-.26-2.82.16-3,6.29-11.5,1.72-13.45-2-.86-5.61,1.42-7.54,2.18a118.18,118.18,0,0,1-11.5,3.81c1.87-3.73,5.44-11.19-1.26-9.19-5.23,1.55-10.09,5.55-15.34,7.44,1.74-2.85,8.68-11.67,2.41-12.16-2-.16-7.64,3.51-9.74,4.29A111.78,111.78,0,0,1,571,249c-22.47,4.05-48.75,2.9-69.55,13.13-16,7.89-31.86,20.13-41.12,35.71-8.93,15-12.27,31.47-14.13,48.68a243.52,243.52,0,0,0-.84,38.38c.2,4.15.67,23.3,6.71,17.5,3-2.89,3-14.56,3.74-18.5,1.51-7.86,3-15.76,5.47-23.36,4.43-13.41,9.65-19.66,20.68-28.89,7.08-5.93,12.05-13.93,18.83-19.91,3-2.68.72-2.4,5.61-2,3.29.23,6.59.33,9.88.41,7.62.2,15.25.15,22.87.18,15.35.05,30.63.27,46-.54,6.82-.35,13.65-.55,20.44-1.18,3.8-.35,10.54-2.78,13.66-.92,2.86,1.7,5.83,7.25,7.89,9.53,4.85,5.37,10.63,9.48,16.31,13.89,11.83,9.19,17.8,12.71,21.39,27.07s2.58,27.59,7,41.67c.78,2.48,2.84,6.74,5.38,2.92.47-.71.35-4.62.35-6.86,0-9.08,2.3-15.88,2.27-25C679.69,343.12,678.79,306.92,658,285.71Z"/></g></mask></defs><title>temp avatar</title><path class="a" d="M949,335.71c-5.54-5.66-12-10.47-18.22-15.28-1.38-1.07-2.79-2.1-4.14-3.21-.3-.25-3.44-2.5-3.82-3.32-.91-2-.38-.45-.26-2.82.16-3,6.29-11.5,1.72-13.45-2-.86-5.61,1.42-7.54,2.18a118.18,118.18,0,0,1-11.5,3.81c1.87-3.73,5.44-11.19-1.26-9.19-5.23,1.55-10.09,5.55-15.34,7.44,1.74-2.85,8.68-11.67,2.41-12.16-2-.16-7.64,3.51-9.74,4.29A111.78,111.78,0,0,1,862,299c-22.47,4-48.75,2.9-69.55,13.13-16,7.89-31.86,20.13-41.12,35.71-8.93,15-12.27,31.47-14.13,48.68a243.52,243.52,0,0,0-.84,38.38c.2,4.15.67,23.3,6.71,17.5,3-2.89,3-14.56,3.74-18.5,1.51-7.86,3-15.76,5.47-23.36,4.43-13.41,9.65-19.66,20.68-28.89,7.08-5.93,12-13.93,18.83-19.91,3-2.68.72-2.4,5.61-2,3.29.23,6.59.33,9.88.41,7.62.2,15.25.15,22.87.18,15.35.05,30.63.27,46-.54,6.82-.35,13.65-.55,20.44-1.18,3.8-.35,10.54-2.78,13.66-.92,2.86,1.7,5.83,7.25,7.89,9.53,4.85,5.37,10.63,9.48,16.31,13.89,11.83,9.19,17.8,12.71,21.39,27.07s2.58,27.59,7,41.67c.78,2.48,2.84,6.74,5.38,2.92.47-.71.35-4.62.35-6.86,0-9.08,2.3-15.88,2.27-25C970.69,393.12,969.79,356.92,949,335.71Z" transform="translate(-299 -206.01)"/><rect class="a" x="291" y="50" width="530.77" height="561.99"/><path class="a" d="M906.57,490.51c19.29,0,28.1,8.94,28.1-5s-12.58-23.2-28.1-23.2-28.1,9.28-28.1,23.2S887.28,490.51,906.57,490.51Z" transform="translate(-299 -206.01)"/><path class="a" d="M802.2,490.51c19.29,0,28.1,8.94,28.1-5s-12.58-23.2-28.1-23.2-28.1,9.28-28.1,23.2S782.91,490.51,802.2,490.51Z" transform="translate(-299 -206.01)"/><path class="a" d="M816.49,554.66a38.14,38.14,0,0,0,75.82-.18c.16-1.54-1.56-4.1-3.72-4.1H820.44A4.28,4.28,0,0,0,816.49,554.66Z" transform="translate(-299 -206.01)"/><path class="a" d="M806.32,623.45v36.42c0,26.06,20.26,48.31,46.31,49.18a48,48,0,0,0,49.59-47.92V623.45c35.75,4,63.29,15,63.84,43.3a144.57,144.57,0,0,1,87.81,133.18V818H654.67V799.93a144.57,144.57,0,0,1,87.81-133.18C743,638.47,770.57,627.48,806.32,623.45Z" transform="translate(-299 -206.01)"/><path class="a" d="M902.22,618.29V655.2H974.7a81.4,81.4,0,0,1,81.4,81.4V818H654.67V736.6a81.4,81.4,0,0,1,81.4-81.4h70.25V618.29a112.49,112.49,0,0,1-64-89.78,24.13,24.13,0,0,1-20.79-23.84V476.36a24.09,24.09,0,0,1,20.07-23.75V441.78c0-57,41.81-106.23,98.35-113.17A112.65,112.65,0,0,1,966.89,440.35v12.26A24.09,24.09,0,0,1,987,476.36v28.31a24.13,24.13,0,0,1-20.79,23.84A112.49,112.49,0,0,1,902.22,618.29Z" transform="translate(-299 -206.01)"/><path class="a" d="M614.13,577.15H590V256h530.77V577.15h-24.13c0,133-108,240.85-241.26,240.85S614.13,710.17,614.13,577.15Z" transform="translate(-299 -206.01)"/><circle class="a" cx="555.39" cy="370.71" r="240.85"/><circle class="b" cx="264.39" cy="320.71" r="240.85"/><g class="c"><circle class="d" cx="264.5" cy="323.49" r="241.5"/></g><g class="e"><path class="f" d="M611.22,568.29V605.2H683.7a81.4,81.4,0,0,1,81.4,81.4V768H363.67V686.6a81.4,81.4,0,0,1,81.4-81.4h70.25V568.29a112.49,112.49,0,0,1-64-89.78,24.13,24.13,0,0,1-20.79-23.84V426.36a24.09,24.09,0,0,1,20.07-23.75V391.78c0-57,41.81-106.23,98.35-113.17A112.65,112.65,0,0,1,675.89,390.35v12.26A24.09,24.09,0,0,1,696,426.36v28.31a24.13,24.13,0,0,1-20.79,23.84A112.49,112.49,0,0,1,611.22,568.29Z" transform="translate(-299 -206.01)"/><g class="g"><rect class="h" y="71.36" width="530.77" height="490.63"/></g><g class="i"><path class="j" d="M675.89,466.38V481c0,57-41.81,106.24-98.35,113.18A112.66,112.66,0,0,1,450.65,482.47V466.38a112.62,112.62,0,1,0,225.24,0Z" transform="translate(-299 -206.01)"/></g><path class="k" d="M515.32,573.45v36.42c0,26.06,20.26,48.31,46.31,49.18a48,48,0,0,0,49.59-47.92V573.45c35.75,4,63.29,15,63.84,43.3a144.57,144.57,0,0,1,87.81,133.18V768H363.67V749.93a144.57,144.57,0,0,1,87.81-133.18C452,588.47,479.57,577.48,515.32,573.45Z" transform="translate(-299 -206.01)"/><g class="l"><rect class="m" y="341.21" width="530.77" height="220.78"/></g><g class="n"><path class="o" d="M501.94,671.13V768H488.56V663.93A120.1,120.1,0,0,0,501.94,671.13Zm136-5.53v76.69a7,7,0,0,1-6.39,7.12,6.68,6.68,0,0,1-7-6.68V672.46A123.53,123.53,0,0,0,638,665.6Z" transform="translate(-299 -206.01)"/></g><g class="p"><path class="q" d="M563.37,683.28c-67.16,0-133.46-32.08-133.46-71.64,0-22.21,20.9-33.6,51.11-39.31-18.24,6.72-30,18-30,36.84C451,650.09,506.82,683.27,563.37,683.28Zm82.39-110.95c30.21,5.71,51.1,17.1,51.1,39.31,0,39.56-66.3,71.63-133.45,71.64,56.55,0,112.38-33.19,112.38-74.11C675.79,590.36,664,579.05,645.76,572.33Z" transform="translate(-299 -206.01)"/></g><path class="r" d="M525.49,504.66a38.14,38.14,0,0,0,75.82-.18c.16-1.54-1.56-4.1-3.72-4.1H529.44A4.28,4.28,0,0,0,525.49,504.66Z" transform="translate(-299 -206.01)"/><g class="s"><rect class="a" x="234.16" y="272.08" width="62.44" height="31.22" rx="10.04" ry="10.04"/></g><g class="t"><circle class="u" cx="254.35" cy="338.78" r="22.08"/><circle class="u" cx="274.42" cy="338.78" r="22.08"/></g><path class="q" d="M539.3,466.51c0,8.87,10.79,16.05,24.09,16.05s24.08-7.18,24.08-16.05" transform="translate(-299 -206.01)"/><path class="a" d="M511.2,440.51c19.29,0,28.1,8.94,28.1-5s-12.58-23.2-28.1-23.2-28.1,9.28-28.1,23.2S491.91,440.51,511.2,440.51Z" transform="translate(-299 -206.01)"/><g class="v"><circle class="w" cx="212.2" cy="226.38" r="12.04"/></g><g class="x"><circle class="y" cx="212.2" cy="226.38" r="6.02"/></g><path class="a" d="M615.57,440.51c19.29,0,28.1,8.94,28.1-5s-12.58-23.2-28.1-23.2-28.1,9.28-28.1,23.2S596.28,440.51,615.57,440.51Z" transform="translate(-299 -206.01)"/><g class="z"><circle class="w" cx="316.57" cy="226.38" r="12.04"/></g><g class="aa"><circle class="y" cx="316.57" cy="226.38" r="6.02"/></g><path class="ab" d="M504.27,382.51c-11.65.53-30.5,9-30,20.76a.51.51,0,0,0,.86.26c5.53-5.94,44.79-11.95,58.61-8.77,1.27.3,2.23-.95,1.43-1.85-6.87-7.73-20.45-10.9-30.89-10.4" transform="translate(-299 -206.01)"/><path class="ab" d="M624.51,382.51c11.65.53,30.5,9,30,20.76a.5.5,0,0,1-.85.26c-5.53-5.94-44.79-11.95-58.62-8.77-1.27.3-2.23-.95-1.43-1.85,6.87-7.73,20.45-10.9,30.89-10.4" transform="translate(-299 -206.01)"/><g class="ac"><path class="ad" d="M658,285.71c-5.54-5.66-12-10.47-18.22-15.28-1.38-1.07-2.79-2.1-4.14-3.21-.3-.25-3.44-2.5-3.82-3.32-.91-2-.38-.45-.26-2.82.16-3,6.29-11.5,1.72-13.45-2-.86-5.61,1.42-7.54,2.18a118.18,118.18,0,0,1-11.5,3.81c1.87-3.73,5.44-11.19-1.26-9.19-5.23,1.55-10.09,5.55-15.34,7.44,1.74-2.85,8.68-11.67,2.41-12.16-2-.16-7.64,3.51-9.74,4.29A111.78,111.78,0,0,1,571,249c-22.47,4.05-48.75,2.9-69.55,13.13-16,7.89-31.86,20.13-41.12,35.71-8.93,15-12.27,31.47-14.13,48.68a243.52,243.52,0,0,0-.84,38.38c.2,4.15.67,23.3,6.71,17.5,3-2.89,3-14.56,3.74-18.5,1.51-7.86,3-15.76,5.47-23.36,4.43-13.41,9.65-19.66,20.68-28.89,7.08-5.93,12.05-13.93,18.83-19.91,3-2.68.72-2.4,5.61-2,3.29.23,6.59.33,9.88.41,7.62.2,15.25.15,22.87.18,15.35.05,30.63.27,46-.54,6.82-.35,13.65-.55,20.44-1.18,3.8-.35,10.54-2.78,13.66-.92,2.86,1.7,5.83,7.25,7.89,9.53,4.85,5.37,10.63,9.48,16.31,13.89,11.83,9.19,17.8,12.71,21.39,27.07s2.58,27.59,7,41.67c.78,2.48,2.84,6.74,5.38,2.92.47-.71.35-4.62.35-6.86,0-9.08,2.3-15.88,2.27-25C679.69,343.12,678.79,306.92,658,285.71Z" transform="translate(-299 -206.01)"/><g class="ae"><rect class="af" width="533" height="561.99"/></g></g></g></svg>